HIERARCHY
ROOT Hips
{
	OFFSET 0.000000 0.000000 0.000000
	CHANNELS 6 Xposition Yposition Zposition Xrotation Yrotation Zrotation
	JOINT LeftUpLeg_virtual
	{
		OFFSET 0.000000 0.000000 0.000000
		CHANNELS 3 Xrotation Yrotation Zrotation
		JOINT LeftUpLeg
		{
			OFFSET 15.427100 -6.655098 0.678600
			CHANNELS 3 Xrotation Yrotation Zrotation
			JOINT LeftLeg
			{
				OFFSET 4.081073 -39.591068 13.024000
				CHANNELS 3 Xrotation Yrotation Zrotation
				JOINT LeftFoot
				{
					OFFSET -4.081074 -37.707932 -15.979700
					CHANNELS 3 Xrotation Yrotation Zrotation
					JOINT LeftToeBase
					{
						OFFSET 5.346399 -15.068900 20.645000
						CHANNELS 3 Xrotation Yrotation Zrotation
						JOINT LeftToe_End
						{
							OFFSET 2.754700 0.931300 11.300900
							CHANNELS 3 Xrotation Yrotation Zrotation
							End Site
							{
								OFFSET 0 0 0
							}
						}
					}
				}
			}
		}
	}
	JOINT RightUpLeg_virtual
	{
		OFFSET 0.000000 0.000000 0.000000
		CHANNELS 3 Xrotation Yrotation Zrotation
		JOINT RightUpLeg
		{
			OFFSET -15.569500 -6.655098 0.678600
			CHANNELS 3 Xrotation Yrotation Zrotation
			JOINT RightLeg
			{
				OFFSET -4.081825 -39.591045 13.023800
				CHANNELS 3 Xrotation Yrotation Zrotation
				JOINT RightFoot
				{
					OFFSET 4.081824 -37.707954 -15.979600
					CHANNELS 3 Xrotation Yrotation Zrotation
					JOINT RightToeBase
					{
						OFFSET -5.346400 -15.068900 20.645000
						CHANNELS 3 Xrotation Yrotation Zrotation
						JOINT RightToe_End
						{
							OFFSET -2.754700 0.931300 11.300900
							CHANNELS 3 Xrotation Yrotation Zrotation
							End Site
							{
								OFFSET 0 0 0
							}
						}
					}
				}
			}
		}
	}
	JOINT Spine_virtual
	{
		OFFSET 0.000000 0.000000 0.000000
		CHANNELS 3 Xrotation Yrotation Zrotation
		JOINT Spine
		{
			OFFSET -0.279200 12.230698 -2.892100
			CHANNELS 3 Xrotation Yrotation Zrotation
			JOINT Spine1
			{
				OFFSET -0.232667 10.192268 -1.242267
				CHANNELS 3 Xrotation Yrotation Zrotation
				JOINT Spine1_split
				{
					OFFSET -0.232667 10.192268 -1.242267
					CHANNELS 3 Xrotation Yrotation Zrotation
					JOINT Spine2
					{
						OFFSET -0.232667 10.192268 -1.242267
						CHANNELS 3 Xrotation Yrotation Zrotation
						JOINT Neck_virtual
						{
							OFFSET 0.000000 0.000000 0.000000
							CHANNELS 3 Xrotation Yrotation Zrotation
							JOINT Neck
							{
								OFFSET -0.418800 17.814194 8.416900
								CHANNELS 3 Xrotation Yrotation Zrotation
								JOINT Head
								{
									OFFSET 0.000000 7.031097 3.806800
									CHANNELS 3 Xrotation Yrotation Zrotation
									JOINT HeadTop_End
									{
										OFFSET 0.000000 24.646606 12.978600
										CHANNELS 3 Xrotation Yrotation Zrotation
										End Site
										{
											OFFSET 0 0 0
										}
									}
								}
							}
						}
						JOINT LeftShoulder_virtual
						{
							OFFSET 0.000000 0.000000 0.000000
							CHANNELS 3 Xrotation Yrotation Zrotation
							JOINT LeftShoulder
							{
								OFFSET 8.476499 7.247704 -3.868750
								CHANNELS 3 Xrotation Yrotation Zrotation
								JOINT LeftShoulder_split
								{
									OFFSET 8.476499 7.247704 -3.868750
									CHANNELS 3 Xrotation Yrotation Zrotation
									JOINT LeftArm
									{
										OFFSET 9.308998 -2.777710 0.208600
										CHANNELS 3 Xrotation Yrotation Zrotation
										JOINT LeftForeArm
										{
											OFFSET 29.972298 0.000000 0.000000
											CHANNELS 3 Xrotation Yrotation Zrotation
											JOINT LeftHand
											{
												OFFSET 26.026505 0.000000 0.000000
												CHANNELS 3 Xrotation Yrotation Zrotation
												End Site
												{
													OFFSET 0 0 0
												}
											}
										}
									}
								}
							}
						}
						JOINT RightShoulder_virtual
						{
							OFFSET 0.000000 0.000000 0.000000
							CHANNELS 3 Xrotation Yrotation Zrotation
							JOINT RightShoulder
							{
								OFFSET -7.570500 7.247704 -3.868750
								CHANNELS 3 Xrotation Yrotation Zrotation
								JOINT RightShoulder_split
								{
									OFFSET -7.570500 7.247704 -3.868750
									CHANNELS 3 Xrotation Yrotation Zrotation
									JOINT RightArm
									{
										OFFSET -9.308998 -2.777710 0.208500
										CHANNELS 3 Xrotation Yrotation Zrotation
										JOINT RightForeArm
										{
											OFFSET -29.972300 0.000000 0.000000
											CHANNELS 3 Xrotation Yrotation Zrotation
											JOINT RightHand
											{
												OFFSET -26.026505 0.000000 0.000000
												CHANNELS 3 Xrotation Yrotation Zrotation
												End Site
												{
													OFFSET 0 0 0
												}
											}
										}
									}
								}
							}
						}
					}
				}
			}
		}
	}
}
MOTION
Frames: 4
Frame Time: 0.03333333
-0.706230 79.895378 -4.297714 0.000000 0.000000 0.000000 5.471227 3.248674 -5.410149 -39.241496 2.161056 1.724863 95.160497 12.132310 2.390882 -10.136178 -1.354539 5.720276 -0.898546 -2.887880 -6.627551 0.000000 0.000000 0.000000 5.471227 3.248674 -5.410149 -20.674170 -7.771424 8.318007 52.050932 -1.363308 -2.669106 -28.873252 0.880197 -2.166802 -10.356513 12.980915 -1.406486 0.000000 0.000000 0.000000 5.471227 3.248674 -5.410149 4.873102 1.211074 3.800295 9.857121 2.800249 1.722123 0.000000 0.000000 0.000000 0.000000 0.000000 0.000000 9.857132 2.800252 1.722121 -7.496581 -3.144983 -0.434787 -14.101450 -7.360288 -5.253898 0.000000 0.000000 0.000000 9.857132 2.800252 1.722121 1.084050 -1.226538 -9.108710 0.000000 0.000000 0.000000 21.951236 16.129903 -69.744612 -174.798242 -76.010102 173.876481 0.000000 0.000000 0.000000 9.857132 2.800252 1.722121 0.776471 6.054086 9.529804 0.000000 0.000000 0.000000 5.506721 -10.523613 55.529271 -70.895731 86.710563 75.612790 0.000000 0.000000 0.000000 
2.382967 81.570969 21.162991 0.000000 0.000000 0.000000 0.146069 -2.188258 1.444596 -58.043801 -2.014185 1.989546 83.490252 12.417409 2.309501 10.120485 -1.217607 8.348241 -4.875790 -3.545087 -3.061961 0.000000 0.000000 0.000000 0.146069 -2.188258 1.444596 0.940273 -5.198540 -1.697860 53.107299 2.882073 -4.022261 -17.457557 -0.565643 0.942386 -41.693152 9.927762 8.759959 0.000000 0.000000 0.000000 0.146069 -2.188258 1.444596 4.653115 2.393190 1.900825 9.488547 3.163840 -0.986326 0.000000 0.000000 0.000000 0.000000 0.000000 0.000000 9.488545 3.163836 -0.986325 2.602476 -3.411512 -2.577497 -12.199130 -8.439066 -5.062700 0.000000 0.000000 0.000000 9.488545 3.163836 -0.986325 0.950485 -5.646695 -7.066023 0.000000 0.000000 0.000000 19.644681 26.553699 -68.303394 135.056650 -88.006687 123.490558 0.000000 0.000000 0.000000 9.488545 3.163836 -0.986325 0.215434 7.052321 4.417728 0.000000 0.000000 0.000000 -0.696321 -7.601966 49.506615 -136.723735 80.118413 141.096176 0.000000 0.000000 0.000000 
2.797026 79.966728 42.501305 0.000000 0.000000 0.000000 -6.270850 -9.319041 7.859723 -61.771111 -5.887823 2.508202 67.439082 17.181790 3.333245 14.247907 -0.634333 6.074756 -4.770367 -8.955203 4.908117 0.000000 0.000000 0.000000 -6.270850 -9.319041 7.859723 6.762019 2.557320 -13.007859 55.290115 5.679106 -3.507799 36.108420 -0.086884 -4.547017 -82.337855 -4.202445 8.236894 0.000000 0.000000 0.000000 -6.270850 -9.319041 7.859723 5.223606 3.330185 -1.577272 10.507890 3.279739 -3.461314 0.000000 0.000000 0.000000 0.000000 0.000000 0.000000 10.507896 3.279740 -3.461316 11.415383 -3.410769 -4.364174 -10.844140 -7.168179 -5.071504 0.000000 0.000000 0.000000 10.507896 3.279740 -3.461316 0.774283 -9.387639 -6.438875 0.000000 0.000000 0.000000 20.205195 35.514600 -63.760096 44.363428 -72.657374 27.758502 0.000000 0.000000 0.000000 10.507896 3.279740 -3.461316 -0.199671 7.579317 -1.593903 0.000000 0.000000 0.000000 -6.612555 -8.410415 44.561995 -147.787740 71.668383 149.583383 0.000000 0.000000 0.000000 
3.989210 75.875381 62.875507 0.000000 0.000000 0.000000 -10.210050 -18.537724 11.842875 -56.155596 -7.076407 4.319576 48.509489 23.627373 5.506491 12.167860 -0.182585 7.538715 -5.391870 -11.789753 10.073214 0.000000 0.000000 0.000000 -10.210050 -18.537724 11.842875 13.176678 6.032386 -13.665271 57.148582 9.994302 1.677603 54.727058 2.615472 0.633219 16.625148 10.850545 29.163849 0.000000 0.000000 0.000000 -10.210050 -18.537724 11.842875 5.817982 3.981283 -4.146835 11.598095 3.450194 -5.915491 0.000000 0.000000 0.000000 0.000000 0.000000 0.000000 11.598089 3.450193 -5.915491 16.890327 -2.645587 -6.011882 -10.493306 -3.242925 -5.853356 0.000000 0.000000 0.000000 11.598089 3.450193 -5.915491 0.522783 -10.917883 -5.526654 0.000000 0.000000 0.000000 24.556572 41.465580 -61.039331 37.414420 -54.868610 14.591029 0.000000 0.000000 0.000000 11.598089 3.450193 -5.915491 -0.402398 7.421403 -7.423814 0.000000 0.000000 0.000000 -7.388204 -13.516206 42.105381 -151.539071 58.470941 151.678475 0.000000 0.000000 0.000000 
